<?xml version="1.0" encoding="UTF-8" standalone="no"?>
<!-- Created with Inkscape (http://www.inkscape.org/) -->

<svg
   version="1.1"
   id="svg1"
   width="300"
   height="300"
   viewBox="0 0 300 300"
   xmlns="http://www.w3.org/2000/svg"
   xmlns:svg="http://www.w3.org/2000/svg">
  <defs
     id="defs1" />
  <g
     id="g1">
    <g
       id="g9"
       transform="translate(3.0142573,1.5071286)">
      <path
         style="fill:#f9d7ed"
         d="m 117.87244,223.25 c -1.24387,-1.58606 -1.2085,-1.62143 0.37756,-0.37756 0.9625,0.75485 1.75,1.54235 1.75,1.75 0,0.82304 -0.82119,0.29331 -2.12756,-1.37244 z m 36.54598,-25.5 c 1.71778,-5.93084 2.66921,-14.78249 2.12285,-19.75 -0.71419,-6.49338 -3.21477,-12.54737 -9.75051,-23.60634 C 144.15584,149.93517 142,146.05916 142,145.7803 c 0,-0.53559 6.88177,-1.97437 18.5,-3.86782 4.07078,-0.66342 10.76614,-0.87908 16,-0.51536 4.95,0.34399 14.46154,0.89023 21.13675,1.21387 l 12.13676,0.58843 3.86324,-3.42048 c 2.12479,-1.88127 7.03269,-5.92105 10.90645,-8.9773 6.58909,-5.19855 10.26187,-8.76329 18.6471,-18.09858 2.06975,-2.30426 4.48597,-3.9116 6.14618,-4.08861 1.50461,-0.16042 4.00746,-1.23195 5.56188,-2.38118 2.5924,-1.91665 2.32942,-1.12338 -3.17878,9.58861 -3.30274,6.42296 -6.75873,12.57812 -7.67997,13.67812 -2.41558,2.88431 -10.09764,14.82981 -14.93298,23.22059 -2.28855,3.97133 -5.83627,9.20757 -7.88382,11.63609 -2.04754,2.42852 -6.4959,8.17925 -9.88523,12.7794 -3.38932,4.60016 -8.81641,10.55257 -12.06018,13.22759 -9.33767,7.70041 -15.81525,9.57904 -33.14403,9.61247 -12.35584,0.0238 -12.36606,0.0219 -11.71495,-2.22614 z m -66.831288,-0.4962 c -1.579964,-1.57997 -0.210829,-6.98727 3.201887,-12.64563 2.557604,-4.24056 6.538801,-8.60973 12.250001,-13.44377 4.65354,-3.93883 9.13598,-7.73702 9.96098,-8.44043 4.82584,-4.11461 4.89578,-3.85443 1.32794,4.93974 -4.37374,10.78054 -6.2453,18.20113 -6.29232,24.94843 l -0.0356,5.11215 -9.912868,0.0583 c -5.452078,0.0321 -10.177078,-0.20589 -10.5,-0.52881 z M 195.59616,133.69397 c -2.74692,-2.0086 -1.70161,-5.84544 1.90384,-6.98806 1.65,-0.5229 5.10573,-2.69565 7.67941,-4.82832 5.05205,-4.18638 8.16062,-4.87931 9.68327,-2.15848 1.55474,2.77816 -1.12291,6.51646 -7.95227,11.10227 -6.64984,4.46525 -8.49536,4.93381 -11.31425,2.87259 z m -1,-17 c -2.98681,-2.18401 -1.70109,-5.96457 2.40384,-7.06831 1.925,-0.5176 4.93248,-1.99511 6.68328,-3.28337 3.86574,-2.84445 7.87356,-3.03886 9.25952,-0.44916 1.3331,2.49091 -1.39116,6.0075 -7.36686,9.5095 -4.90119,2.87229 -8.27505,3.26909 -10.97978,1.29134 z"
         id="path15" />
      <path
         style="fill:#ede2af"
         d="M 93.618001,130.70994 C 92.189504,129.6654 92.069586,128.94717 92.941002,126.65518 93.523451,125.12322 94,122.7741 94,121.4349 94,119.49791 93.483664,119 91.475,119 c -2.005556,0 -2.648432,0.61716 -3.125,3 -0.701785,3.50892 -1.920302,3.7069 -5.334343,0.86668 l -2.484342,-2.06678 2.734342,-2.35199 C 84.769546,117.15432 86,115.17435 86,114.04797 86,111.01688 81.007185,111.299 78,114.5 c -1.291745,1.375 -2.675738,2.5 -3.075538,2.5 -0.399801,0 -1.672497,-1.4625 -2.828215,-3.25 -1.155718,-1.7875 -3.413783,-5.05 -5.017923,-7.25 -3.663668,-5.02454 -4.326537,-8.289732 -4.466239,-22 C 62.502971,73.791577 62.602619,73.267895 66.3714,64.743643 72.998753,49.753853 85.667678,34 91.094806,34 c 0.95619,0 1.926066,-0.5625 2.15528,-1.25 0.291983,-0.87577 2.936543,-1.228898 8.833334,-1.179517 7.67661,0.06429 8.98804,0.381508 14.91658,3.608163 8.00531,4.356959 16.35499,9.043438 16.9271,9.50079 0.2349,0.187784 -0.7776,1.598856 -2.25,3.135714 -5.60805,5.85354 -1.39237,10.16043 4.45848,4.554953 1.89896,-1.819319 3.3028,-2.409449 4.55472,-1.914661 1.5631,0.617774 1.23057,1.218316 -2.4403,4.407165 -7.82636,6.798674 -4.19575,11.430545 3.92081,5.002108 2.95356,-2.339264 4.24686,-2.847046 5.09391,-2 C 148.05779,58.657788 148.0711,59 147.30888,59 c -2.94453,0 -18.02132,15.600969 -28.02562,29 -2.25859,3.025 -8.41744,14.00864 -13.68632,24.40809 -5.26889,10.39946 -9.729002,19.05731 -9.911368,19.23967 -0.182365,0.18237 -1.112772,-0.23965 -2.067571,-0.93782 z M 82.504787,89.586122 C 85.38423,86.706679 86.679352,82.306799 85.298471,80.095223 84.75065,79.21785 83.109386,77.825 81.651217,77 c -2.359835,-1.335142 -2.949687,-1.333044 -5.36692,0.01909 -1.499989,0.839055 -3.357921,3.206463 -4.150309,5.288393 -1.392248,3.658008 -1.35083,3.85674 1.402795,6.730905 3.442169,3.592851 5.780092,3.735641 8.968004,0.547729 z M 109.7426,78.117599 C 108.98454,72.465877 106.81717,68.5 104.48653,68.5 c -1.71249,0 -1.94954,0.586288 -1.71839,4.25 0.24736,3.920523 0.0775,4.25 -2.19098,4.25 -2.771725,0 -4.024948,1.390701 -3.197158,3.547887 C 97.783743,81.600018 99.634835,82 104.10028,82 h 6.16306 z M 110,55 c 2.86852,-2.868521 2.74217,-9.366758 -0.22251,-11.443296 C 108.55512,42.700517 106.50966,42 105.23204,42 102.35321,42 98.312069,45.908436 97.389246,49.585256 95.950219,55.318798 105.5565,59.443497 110,55 Z m -62.724115,56.27656 c -1.164232,-3.03394 1.214217,-7.57535 4.994969,-9.53738 C 56.643113,99.470177 59,99.99798 59,103.24611 c 0,1.26988 0.7209,3.33811 1.601999,4.59605 0.881099,1.25795 1.396559,2.49262 1.145466,2.74371 -0.251093,0.25109 -3.489997,0.82173 -7.197566,1.26807 -5.385884,0.6484 -6.848178,0.53233 -7.274014,-0.57738 z M 116.55144,28.17207 c -1.65036,-0.823647 -7.03419,-1.685239 -12.22818,-1.956919 l -9.279619,-0.485384 3.673597,-3.364883 c 4.302702,-3.941123 5.377642,-4.049609 12.759472,-1.287712 4.05725,1.518011 5.97155,2.888994 7.11125,5.09293 0.85773,1.658667 1.41383,3.118751 1.23578,3.244631 -0.17806,0.12588 -1.65059,-0.433318 -3.2723,-1.242663 z"
         id="path14" />
      <path
         style="fill:#a6ddf3"
         d="m 60,269.62244 c 0,-0.20765 0.7875,-0.99515 1.75,-1.75 1.586056,-1.24387 1.621426,-1.2085 0.377555,0.37756 C 60.821186,269.91575 60,270.44548 60,269.62244 Z M 67,263.5 c 1.291745,-1.375 2.573628,-2.5 2.848628,-2.5 0.275,0 -0.556883,1.125 -1.848628,2.5 -1.291745,1.375 -2.573628,2.5 -2.848628,2.5 -0.275,0 0.556883,-1.125 1.848628,-2.5 z m 6.5,-8.5 c 0.995486,-1.1 2.034975,-2 2.309975,-2 0.275,0 -0.314489,0.9 -1.309975,2 -0.995486,1.1 -2.034975,2 -2.309975,2 -0.275,0 0.314489,-0.9 1.309975,-2 z M 137,228.5 c 1.29175,-1.375 2.57363,-2.5 2.84863,-2.5 0.275,0 -0.55688,1.125 -1.84863,2.5 -1.29175,1.375 -2.57363,2.5 -2.84863,2.5 -0.275,0 0.55688,-1.125 1.84863,-2.5 z m 5,-6.87756 c 0,-0.20765 0.7875,-0.99515 1.75,-1.75 1.58606,-1.24387 1.62143,-1.2085 0.37756,0.37756 C 142.82119,221.91575 142,222.44548 142,221.62244 Z M 93.8125,205.31689 c 0.721875,-0.28887 1.584375,-0.25335 1.916667,0.0789 0.332291,0.33229 -0.258334,0.56864 -1.3125,0.52522 -1.164943,-0.048 -1.4019,-0.28494 -0.604167,-0.60416 z M 3.0789474,199.41667 c 0.047984,-1.16495 0.2849403,-1.4019 0.6041666,-0.60417 0.2888706,0.72187 0.2533443,1.58437 -0.078947,1.91667 -0.3322917,0.33229 -0.5686404,-0.25834 -0.5252196,-1.3125 z M 203.5,198 c 0.99549,-1.1 2.03498,-2 2.30998,-2 0.275,0 -0.31449,0.9 -1.30998,2 -0.99549,1.1 -2.03498,2 -2.30998,2 -0.275,0 0.31449,-0.9 1.30998,-2 z M 97.75,197.33772 c 0.6875,-0.27741 1.8125,-0.27741 2.5,0 0.6875,0.27741 0.125,0.50439 -1.25,0.50439 -1.375,0 -1.9375,-0.22698 -1.25,-0.50439 z M 209,193.62244 c 0,-0.20765 0.7875,-0.99515 1.75,-1.75 1.58606,-1.24387 1.62143,-1.2085 0.37756,0.37756 C 209.82119,193.91575 209,194.44548 209,193.62244 Z M 227,170.5 c 1.29175,-1.375 2.57363,-2.5 2.84863,-2.5 0.275,0 -0.55688,1.125 -1.84863,2.5 -1.29175,1.375 -2.57363,2.5 -2.84863,2.5 -0.275,0 0.55688,-1.125 1.84863,-2.5 z M 64,137.62244 c 0,-0.20765 0.7875,-0.99515 1.75,-1.75 1.586056,-1.24387 1.621426,-1.2085 0.377555,0.37756 C 64.821186,137.91575 64,138.44548 64,137.62244 Z m 186,-3 c 0,-0.20765 0.7875,-0.99515 1.75,-1.75 1.58606,-1.24387 1.62143,-1.2085 0.37756,0.37756 C 250.82119,134.91575 250,135.44548 250,134.62244 Z M 70.5,131 c 0.995486,-1.1 2.034975,-2 2.309975,-2 0.275,0 -0.314489,0.9 -1.309975,2 -0.995486,1.1 -2.034975,2 -2.309975,2 -0.275,0 0.314489,-0.9 1.309975,-2 z m 8.372445,-3.75 c -1.243871,-1.58606 -1.208501,-1.62143 0.377555,-0.37756 0.9625,0.75485 1.75,1.54235 1.75,1.75 0,0.82304 -0.821186,0.29331 -2.127555,-1.37244 z M 80,121.32165 c 0,-0.55642 1.0125,-1.86892 2.25,-2.91666 L 84.5,116.5 82.510657,119 c -1.094139,1.375 -2.106639,2.6875 -2.25,2.91667 C 80.117296,122.14583 80,121.87808 80,121.32165 Z m 45,-40.699205 c 0,-0.207656 0.7875,-0.995156 1.75,-1.75 1.58606,-1.243871 1.62143,-1.208501 0.37756,0.377555 C 125.82119,80.915748 125,81.445479 125,80.622445 Z M 139,77.5 c 1.29175,-1.375 2.57363,-2.5 2.84863,-2.5 0.275,0 -0.55688,1.125 -1.84863,2.5 -1.29175,1.375 -2.57363,2.5 -2.84863,2.5 -0.275,0 0.55688,-1.125 1.84863,-2.5 z m 67.87244,-0.25 C 205.62857,75.663944 205.66394,75.628574 207.25,76.872445 208.91575,78.178814 209.44548,79 208.62244,79 c -0.20765,0 -0.99515,-0.7875 -1.75,-1.75 z m 6.53255,-5.5 -1.90499,-2.25 2.25,1.904988 C 215.86444,73.195206 216.45524,74 215.65499,74 c -0.18976,0 -1.20226,-1.0125 -2.25,-2.25 z M 147.5,69 c 0.99549,-1.1 2.03498,-2 2.30998,-2 0.275,0 -0.31449,0.9 -1.30998,2 -0.99549,1.1 -2.03498,2 -2.30998,2 -0.275,0 0.31449,-0.9 1.30998,-2 z m 59.3125,-3.683114 c 0.72187,-0.288871 1.58437,-0.253344 1.91667,0.07895 0.33229,0.332292 -0.25834,0.568641 -1.3125,0.52522 -1.16495,-0.04798 -1.4019,-0.284941 -0.60417,-0.604167 z M 138,62.622445 c 0,-0.207656 0.7875,-0.995156 1.75,-1.75 1.58606,-1.243871 1.62143,-1.208501 0.37756,0.377555 C 138.82119,62.915748 138,63.445479 138,62.622445 Z m 99.8125,-8.305559 c 0.72187,-0.288871 1.58437,-0.253344 1.91667,0.07895 0.33229,0.332292 -0.25834,0.568641 -1.3125,0.52522 -1.16495,-0.04798 -1.4019,-0.284941 -0.60417,-0.604167 z M 136.5,51 c 0.99549,-1.1 2.03498,-2 2.30998,-2 0.275,0 -0.31449,0.9 -1.30998,2 -0.99549,1.1 -2.03498,2 -2.30998,2 -0.275,0 0.31449,-0.9 1.30998,-2 z m 14.5,1.622445 c 0,-0.207656 0.7875,-0.995156 1.75,-1.75 1.58606,-1.243871 1.62143,-1.208501 0.37756,0.377555 C 151.82119,52.915748 151,53.445479 151,52.622445 Z M 140.87244,50.25 C 139.62857,48.663944 139.66394,48.628574 141.25,49.872445 142.91575,51.178814 143.44548,52 142.62244,52 c -0.20765,0 -0.99515,-0.7875 -1.75,-1.75 z M 159.5,47 c 0.99549,-1.1 2.03498,-2 2.30998,-2 0.275,0 -0.31449,0.9 -1.30998,2 -0.99549,1.1 -2.03498,2 -2.30998,2 -0.275,0 0.31449,-0.9 1.30998,-2 z m -10,-9 c 0.99549,-1.1 2.03498,-2 2.30998,-2 0.275,0 -0.31449,0.9 -1.30998,2 -0.99549,1.1 -2.03498,2 -2.30998,2 -0.275,0 0.31449,-0.9 1.30998,-2 z m 137.25,0.337719 c 0.6875,-0.277412 1.8125,-0.277412 2.5,0 0.6875,0.277413 0.125,0.504386 -1.25,0.504386 -1.375,0 -1.9375,-0.226973 -1.25,-0.504386 z M 155,33.5 c 1.29175,-1.375 2.57363,-2.5 2.84863,-2.5 0.275,0 -0.55688,1.125 -1.84863,2.5 -1.29175,1.375 -2.57363,2.5 -2.84863,2.5 -0.275,0 0.55688,-1.125 1.84863,-2.5 z M 97,23.622445 c 0,-0.207656 0.7875,-0.995156 1.75,-1.75 1.58606,-1.243871 1.62143,-1.208501 0.377555,0.377555 C 97.821186,23.915748 97,24.445479 97,23.622445 Z"
         id="path13" />
      <path
         style="fill:#d6f086"
         d="M 123.32914,220.15464 C 117.61143,213.51679 113,203.07571 113,196.76769 v -4.95567 l 8.61482,7.82113 8.61483,7.82113 -0.6255,6.02286 c -0.34403,3.31257 -0.95979,7.25777 -1.36837,8.7671 l -0.74287,2.74424 z M 134.67897,213.5 c 0.45947,-7.1315 1.0044,-9.46712 2.62476,-11.25 1.12469,-1.2375 2.55727,-2.25 3.18349,-2.25 0.62623,0 2.43198,-1.35 4.01278,-3 1.5808,-1.65 3.23999,-3 3.68709,-3 1.09005,0 1.03098,2.61576 -0.10757,4.76357 -0.50626,0.95504 -2.10783,4.66143 -3.55904,8.23643 -1.45121,3.575 -4.38969,8.525 -6.52996,11 l -3.89141,4.5 z M 124.358,194.90874 C 118.4888,190.55001 115,186.49809 115,184.04029 c 0,-1.85351 4.30064,-14.96819 5.7687,-17.59146 0.75416,-1.34762 1.77218,-0.44484 5.69081,5.04663 l 4.77234,6.68783 -0.86593,10.27206 -0.86592,10.27206 z m 11.1059,-4.41627 c 0.3833,-3.57914 1.34051,-7.79767 2.12714,-9.37451 C 138.93562,178.42269 147.39256,171 149.1188,171 c 1.20093,0 2.3772,8.22976 2.03672,14.25 -0.10964,1.93874 -0.69396,2.75 -1.98073,2.75 -1.00386,0 -4.43301,2.025 -7.62032,4.5 -3.18731,2.475 -6.01839,4.5 -6.29129,4.5 -0.27289,0 -0.18257,-2.92839 0.20072,-6.50753 z M 137.36971,169.75 c 0.33164,-1.2375 0.60913,-5.54703 0.61664,-9.57673 l 0.0137,-7.32672 2.25,2.82672 c 5.45977,6.85923 7.09864,9.71052 5.8254,10.13493 -0.69806,0.23269 -2.74751,1.72103 -4.55432,3.30743 -3.9534,3.47114 -4.9525,3.62381 -4.15137,0.63437 z M 128,164.84775 c -1.925,-2.67621 -3.43858,-5.53027 -3.36352,-6.34235 0.18554,-2.0072 6.35049,-11.5054 7.46777,-11.5054 1.06839,0 1.1892,20.01178 0.13044,21.6068 -0.45395,0.68388 -2.0721,-0.75252 -4.23469,-3.75905 z"
         id="path12" />
      <path
         style="fill:#76ccf0"
         d="m 24.078947,273.41667 c 0.04798,-1.16495 0.284941,-1.4019 0.604167,-0.60417 0.288871,0.72187 0.253344,1.58438 -0.07895,1.91667 -0.332292,0.33229 -0.568641,-0.25834 -0.52522,-1.3125 z m 8,-1 c 0.04798,-1.16495 0.284941,-1.4019 0.604167,-0.60417 0.288871,0.72187 0.253344,1.58438 -0.07895,1.91667 -0.332292,0.33229 -0.568641,-0.25834 -0.52522,-1.3125 z M 85.157895,233 c 0,-1.375 0.226973,-1.9375 0.504386,-1.25 0.277412,0.6875 0.277412,1.8125 0,2.5 -0.277413,0.6875 -0.504386,0.125 -0.504386,-1.25 z m -8.078948,-0.58333 c 0.04798,-1.16495 0.284941,-1.4019 0.604167,-0.60417 0.288871,0.72187 0.253344,1.58437 -0.07895,1.91667 -0.332292,0.33229 -0.568641,-0.25834 -0.52522,-1.3125 z m 10.363777,-16.83532 c 0.04629,-8.82406 0.345029,-10.99681 1.557276,-11.32613 1.071385,-0.29105 1.153492,-0.16115 0.287346,0.45458 -0.77639,0.55194 -1.336634,4.62661 -1.557275,11.32614 L 87.385449,226.5 Z M 79.20929,214.79206 79,204.08413 l -7.75,-0.34082 -7.75,-0.34082 7.781385,-0.20125 c 5.674404,-0.14675 7.918662,0.1565 8.288369,1.11994 0.278841,0.72665 0.358898,5.78915 0.177905,11.25 L 79.41858,225.5 Z M 156.75,208.25749 c 3.9875,-0.18981 10.5125,-0.18981 14.5,0 3.9875,0.18982 0.725,0.34512 -7.25,0.34512 -7.975,0 -11.2375,-0.1553 -7.25,-0.34512 z m -51,-1.91977 c 0.6875,-0.27741 1.8125,-0.27741 2.5,0 0.6875,0.27741 0.125,0.50439 -1.25,0.50439 -1.375,0 -1.9375,-0.22698 -1.25,-0.50439 z m -9,-1 c 0.6875,-0.27741 1.8125,-0.27741 2.5,0 0.6875,0.27741 0.125,0.50439 -1.25,0.50439 -1.375,0 -1.9375,-0.22698 -1.25,-0.50439 z m -79,-2.06112 c 1.7875,-0.22182 4.7125,-0.22182 6.5,0 1.7875,0.22183 0.325,0.40333 -3.25,0.40333 -3.575,0 -5.0375,-0.1815 -3.25,-0.40333 z m 13.519032,-0.96959 c 0.972967,-0.25354 2.322967,-0.23687 3,0.0371 0.677032,0.27393 -0.119032,0.48137 -1.769032,0.46099 -1.65,-0.0204 -2.203936,-0.2445 -1.230968,-0.49804 z M 53.75,202.29427 c 1.2375,-0.23836 3.2625,-0.23836 4.5,0 1.2375,0.23835 0.225,0.43337 -2.25,0.43337 -2.475,0 -3.4875,-0.19502 -2.25,-0.43337 z m -14,-1.01767 c 1.7875,-0.22182 4.7125,-0.22182 6.5,0 1.7875,0.22183 0.325,0.40333 -3.25,0.40333 -3.575,0 -5.0375,-0.1815 -3.25,-0.40333 z m 119.5,-1.01815 c 3.7125,-0.19241 9.7875,-0.19241 13.5,0 3.7125,0.19241 0.675,0.34983 -6.75,0.34983 -7.425,0 -10.4625,-0.15742 -6.75,-0.34983 z m -69.4375,-1.94156 c 0.721875,-0.28887 1.584375,-0.25335 1.916667,0.0789 0.332291,0.33229 -0.258334,0.56864 -1.3125,0.52522 -1.164943,-0.048 -1.4019,-0.28494 -0.604167,-0.60416 z m 4,0 c 0.721875,-0.28887 1.584375,-0.25335 1.916667,0.0789 0.332291,0.33229 -0.258334,0.56864 -1.3125,0.52522 -1.164943,-0.048 -1.4019,-0.28494 -0.604167,-0.60416 z m 9.9375,0.0208 c 0.6875,-0.27741 1.8125,-0.27741 2.5,0 0.6875,0.27741 0.125,0.50439 -1.25,0.50439 -1.375,0 -1.9375,-0.22698 -1.25,-0.50439 z M 12.783522,195.2616 c 2.905937,-0.20265 7.405937,-0.20052 10,0.005 C 25.377585,195.47158 23,195.63737 17.5,195.63477 12,195.63217 9.8775848,195.46424 12.783522,195.2616 Z M 64.5,195.40258 c 4.602821,-0.74809 12.277421,-0.84693 11.846943,-0.15258 -0.255737,0.4125 -3.475919,0.68872 -7.15596,0.61382 C 65.510942,195.78892 63.4,195.58136 64.5,195.40258 Z m -33.75,-1.06486 c 0.6875,-0.27741 1.8125,-0.27741 2.5,0 0.6875,0.27741 0.125,0.50439 -1.25,0.50439 -1.375,0 -1.9375,-0.22698 -1.25,-0.50439 z m 23.011659,-0.045 c 1.243913,-0.23919 3.043913,-0.23011 4,0.0202 0.956088,0.25029 -0.06166,0.446 -2.261659,0.4349 -2.2,-0.0111 -2.982253,-0.21589 -1.738341,-0.45508 z m -13.99375,-1.01747 c 1.79735,-0.22256 4.49735,-0.21797 6,0.0102 1.50265,0.22818 0.03209,0.41027 -3.267909,0.40466 -3.3,-0.006 -4.529441,-0.1923 -2.732091,-0.41486 z m 34.690972,-40.3418 c -0.362533,-0.58659 -0.444683,-1.281 -0.182555,-1.54313 0.262128,-0.26213 0.743066,0.21781 1.068751,1.06653 0.676184,1.76211 0.09985,2.07206 -0.886196,0.4766 z M 89.654508,119.75 C 89.909448,119.3375 90.739919,119 91.5,119 c 0.760081,0 1.590552,0.3375 1.845492,0.75 0.254939,0.4125 -0.575533,0.75 -1.845492,0.75 -1.269959,0 -2.100431,-0.3375 -1.845492,-0.75 z M 273.07895,92.416667 c 0.048,-1.164943 0.28494,-1.4019 0.60416,-0.604167 0.28887,0.721875 0.25335,1.584375 -0.0789,1.916667 -0.33229,0.332291 -0.56864,-0.258334 -0.52522,-1.3125 z M 76.75,91.337719 c 0.6875,-0.277412 1.8125,-0.277412 2.5,0 0.6875,0.277413 0.125,0.504386 -1.25,0.504386 -1.375,0 -1.9375,-0.226973 -1.25,-0.504386 z M 85.157895,83 c 0,-1.375 0.226973,-1.9375 0.504386,-1.25 0.277412,0.6875 0.277412,1.8125 0,2.5 -0.277413,0.6875 -0.504386,0.125 -0.504386,-1.25 z M 128,77.622445 c 0,-0.207656 0.7875,-0.995156 1.75,-1.75 1.58606,-1.243871 1.62143,-1.208501 0.37756,0.377555 C 128.82119,77.915748 128,78.445479 128,77.622445 Z M 77.75,76.337719 c 0.6875,-0.277412 1.8125,-0.277412 2.5,0 0.6875,0.277413 0.125,0.504386 -1.25,0.504386 -1.375,0 -1.9375,-0.226973 -1.25,-0.504386 z M 142,73.622445 c 0,-0.207656 0.7875,-0.995156 1.75,-1.75 1.58606,-1.243871 1.62143,-1.208501 0.37756,0.377555 C 142.82119,73.915748 142,74.445479 142,73.622445 Z m -7.54112,-11.688976 c -0.36253,-0.586592 -0.44468,-1.281 -0.18255,-1.543128 0.26212,-0.262129 0.74306,0.21781 1.06875,1.066531 0.67618,1.762107 0.0999,2.072058 -0.8862,0.476597 z M 234.15789,61 c 0,-1.375 0.22698,-1.9375 0.50439,-1.25 0.27741,0.6875 0.27741,1.8125 0,2.5 -0.27741,0.6875 -0.50439,0.125 -0.50439,-1.25 z M 103.25,56.310674 c 0.9625,-0.251527 2.5375,-0.251527 3.5,0 0.9625,0.251528 0.175,0.457323 -1.75,0.457323 -1.925,0 -2.7125,-0.205795 -1.75,-0.457323 z M 111.25218,49.5 c 0.0111,-2.2 0.21589,-2.982253 0.45508,-1.738341 0.23919,1.243913 0.23011,3.043913 -0.0202,4 -0.25029,0.956088 -0.446,-0.06166 -0.4349,-2.261659 z m -14.173233,0.916667 c 0.04798,-1.164943 0.284941,-1.4019 0.604167,-0.604167 0.288871,0.721875 0.253344,1.584375 -0.07895,1.916667 -0.332292,0.332291 -0.568641,-0.258334 -0.52522,-1.3125 z M 220.31697,48.250936 c 11.44933,-0.160556 29.89933,-0.160345 41,4.7e-4 11.10066,0.160815 1.73303,0.292179 -20.81697,0.291921 -22.55,-2.59e-4 -31.63237,-0.131835 -20.18303,-0.292391 z M 104.26903,42.307009 c 0.97297,-0.253543 2.32297,-0.236869 3,0.03705 0.67703,0.273923 -0.11903,0.481368 -1.76903,0.460988 -1.65,-0.02038 -2.20394,-0.244498 -1.23097,-0.498042 z m 90.54347,-0.990123 c 0.72187,-0.288871 1.58437,-0.253344 1.91667,0.07895 0.33229,0.332292 -0.25834,0.568641 -1.3125,0.52522 -1.16495,-0.04798 -1.4019,-0.284941 -0.60417,-0.604167 z M 222.25,40.25114 c 11.4125,-0.160444 30.0875,-0.160444 41.5,0 11.4125,0.160444 2.075,0.291716 -20.75,0.291716 -22.825,0 -32.1625,-0.131272 -20.75,-0.291716 z M 77,36.622445 c 0,-0.207656 0.7875,-0.995156 1.75,-1.75 C 80.336056,33.628574 80.371426,33.663944 79.127555,35.25 77.821186,36.915748 77,37.445479 77,36.622445 Z M 151,29.5 c 1.29175,-1.375 2.57363,-2.5 2.84863,-2.5 0.275,0 -0.55688,1.125 -1.84863,2.5 -1.29175,1.375 -2.57363,2.5 -2.84863,2.5 -0.275,0 0.55688,-1.125 1.84863,-2.5 z m 4.65451,-4.75 C 155.90945,24.3375 156.73992,24 157.5,24 c 0.76008,0 1.59055,0.3375 1.84549,0.75 0.25494,0.4125 -0.57553,0.75 -1.84549,0.75 -1.26996,0 -2.10043,-0.3375 -1.84549,-0.75 z"
         id="path11" />
      <path
         style="fill:#02a2e7"
         d="M 27.987724,283.48521 C 26.524358,281.72196 24.907354,275.67287 20.90787,257 13.339053,221.66257 8.4514182,204.67887 5.2812947,202.70031 3.6444454,201.67871 3.6264329,198.54202 5.25,197.25067 7.0510022,195.81819 31.077432,194.5235 48,194.94704 c 7.975,0.19959 17.645438,0.40566 21.489862,0.45793 l 6.989863,0.095 2.833248,-9 c 1.558287,-4.95 3.250349,-9.78139 3.760138,-10.73643 C 83.5829,174.80853 84,173.52654 84,172.9147 c 0,-0.61184 0.611761,-2.53045 1.359468,-4.26357 3.220394,-7.46459 3.953705,-9.6457 6.27071,-18.65113 1.344338,-5.225 2.669653,-10.24599 2.945144,-11.15775 0.342903,-1.13486 -0.519797,-2.16693 -2.735107,-3.27207 -3.024424,-1.50879 -3.303952,-1.49847 -4.27529,0.15774 -0.571609,0.97465 -1.582493,2.67208 -2.246408,3.77208 -0.663916,1.1 -2.572438,4.85325 -4.241161,8.34055 -3.134093,6.54964 -5.320787,7.65187 -5.881033,2.96441 -0.285868,-2.3918 5.287328,-14.13297 8.513026,-17.93458 1.218696,-1.43629 0.884889,-1.99576 -2.813541,-4.71562 -4.728062,-3.47705 -5.405705,-3.32051 -9.844434,2.27412 -1.714425,2.16088 -4.00491,4.5507 -5.089967,5.3107 -1.085056,0.76001 -2.656816,2.70451 -3.492798,4.32112 -1.67035,3.2301 -3.909189,3.83951 -4.8735,1.32656 -0.62421,-1.62667 2.549181,-7.7306 4.747176,-9.13107 0.652747,-0.41591 3.063106,-2.92335 5.356353,-5.5721 4.022871,-4.64651 4.105903,-4.87955 2.360451,-6.625 -0.994999,-0.995 -2.010753,-2.41408 -2.257232,-3.15352 -0.372618,-1.11785 -2.136049,-1.13378 -10.463696,-0.0945 -13.578856,1.69465 -15.295853,0.95585 -15.322848,-6.5932 -0.02436,-6.8111 2.243773,-10.979854 7.197048,-13.227958 2.358201,-1.070299 5.075139,-1.955881 6.037639,-1.96796 1.544756,-0.01939 1.751269,-1.165466 1.760824,-9.771962 0.0099,-8.888513 1.2395,-15.765507 3.733129,-20.87836 C 69.203333,47.026808 75.769268,37.632044 83.5,31.811509 c 2.75,-2.070499 5.601268,-5.237611 6.336152,-7.038026 1.343372,-3.291173 5.661648,-7.899162 9.154131,-9.768283 5.628367,-3.012213 20.357007,1.584584 24.008657,7.493088 1.10135,1.782013 2.00127,4.983185 2.00152,7.119746 4.4e-4,3.78477 0.18398,3.984178 7.33016,7.964285 l 7.3297,4.082319 8.21295,-8.332319 c 8.22159,-8.341089 10.65392,-9.728012 11.80409,-6.730723 0.43023,1.121171 -1.82893,3.951759 -7.53139,9.436351 C 147.66569,40.347062 144,44.203411 144,44.60761 c 0,0.4042 0.71151,1.521122 1.58114,2.48205 1.50114,1.658743 1.76677,1.640427 5.25,-0.362008 2.01787,-1.160032 4.71871,-2.904953 6.00185,-3.877603 1.28315,-0.97265 4.84542,-2.708472 7.91616,-3.857383 4.88108,-1.826246 5.76577,-1.906318 7.03533,-0.636758 2.0893,2.0893 0.93051,3.233057 -5.24286,5.174817 -3.00006,0.943637 -6.21897,2.560256 -7.15313,3.592489 C 158.45434,48.155446 157.13462,49 156.4558,49 c -0.67883,0 -2.28199,0.848423 -3.56258,1.885384 -1.89277,1.532668 -2.10031,2.160157 -1.10941,3.354127 1.05389,1.269854 2.16974,1.014547 8.24034,-1.885384 C 163.88592,50.509357 167.49036,49 168.03403,49 c 0.54367,0 6.27092,-1.673677 12.72723,-3.719282 L 192.5,41.561435 l 46,-0.688495 c 25.3,-0.378672 47.575,-0.842495 49.5,-1.030718 3.30206,-0.322867 3.51775,-0.158077 3.81381,2.913798 0.19197,1.991913 -0.41743,4.321335 -1.56966,6 C 289.20824,50.265209 287.42389,53.975 286.27893,57 279.70052,74.380239 277.04034,81.000603 275.13191,84.741426 273.95936,87.03982 273,90.486693 273,92.401145 c 0,1.914452 -0.48,3.77748 -1.06668,4.140063 -0.58667,0.362582 -3.88798,6.351642 -7.33624,13.309012 -5.51469,11.12668 -7.73488,14.92817 -15.27227,26.14978 -4.6856,6.97588 -10.49156,16.25378 -14.21818,22.72059 -2.28855,3.97133 -5.83627,9.20364 -7.88382,11.62736 -2.04754,2.42371 -6.39986,8.06686 -9.67182,12.54031 -6.36349,8.70025 -15.84503,17.43927 -21.55099,19.86329 -1.925,0.81779 -5.075,2.19904 -7,3.06945 -2.63708,1.19239 -7.87439,1.68001 -21.24251,1.97778 l -17.74251,0.39522 1.40409,-3.347 1.40409,-3.347 14.83842,-0.5526 c 10.58344,-0.39414 15.69868,-0.99909 17.83842,-2.10966 1.65,-0.85638 4.125,-1.82845 5.5,-2.16014 4.25295,-1.02594 15.20724,-11.05194 21.5,-19.67804 3.3,-4.52364 7.86705,-10.45647 10.149,-13.18408 2.28195,-2.72761 5.61956,-7.73944 7.41691,-11.13739 1.79736,-3.39795 6.73601,-11.38897 10.9748,-17.75783 7.39681,-11.11384 19.01211,-32.92524 23.12276,-43.42026 1.07711,-2.75 3.25739,-7.925 4.84507,-11.5 C 272.9838,71.04886 281,50.309396 281,48.975768 c 0,-0.77937 -12.26897,-0.989119 -42.75,-0.730847 l -42.75,0.362229 -13.58682,4.114822 c -19.40693,5.87747 -25.72018,8.894026 -35.024,16.734959 -8.28162,6.979459 -23.81838,26.366583 -28.08337,35.043069 -1.35178,2.75 -5.21594,10.40362 -8.58701,17.00804 -4.24216,8.31102 -7.24453,16.00801 -9.75175,25 -3.789382,13.59041 -5.952682,20.30939 -9.495488,29.49196 -1.167101,3.025 -2.973707,8.37305 -4.01468,11.88457 -1.040974,3.51151 -2.130509,6.62239 -2.42119,6.91307 -0.290681,0.29068 0.82106,1.34924 2.470535,2.35234 2.210141,1.34407 4.247851,1.6935 7.74641,1.32839 2.61105,-0.27249 6.615823,-0.22211 8.899503,0.11196 3.85437,0.56385 4.18137,0.85785 4.55983,4.09965 l 0.4077,3.49224 -8.753285,-0.6928 c -4.814307,-0.38103 -9.566233,-0.75953 -10.559836,-0.84111 -1.62288,-0.13323 -1.871441,1.12255 -2.444817,12.35169 -0.988506,19.35916 -2.56763,24.11644 -12.257227,36.9262 -6.309731,8.34154 -12.895581,14.42773 -20.330545,18.78808 -21.884195,12.83435 -23.891225,13.65674 -26.286236,10.77093 z M 55.142725,263 c 5.768592,-4.21493 9.764104,-8.71929 17.605024,-19.84712 5.164673,-7.32971 7.536859,-17.61082 7.072615,-30.65288 l -0.320364,-9 -13,-0.78925 c -7.15,-0.43408 -16.825,-0.86599 -21.5,-0.95979 -10.369008,-0.20805 -30,1.27906 -30,2.27259 0,0.39722 0.870891,2.69192 1.935313,5.09933 1.064423,2.40742 2.61214,7.52712 3.439372,11.37712 0.827233,3.85 3.106341,13.94543 5.064687,22.43428 C 27.397717,251.42314 29,259.16991 29,260.14933 c 0,0.97943 0.625635,3.709 1.390301,6.06572 0.764665,2.35672 1.657113,5.4582 1.983217,6.89217 l 0.592917,2.60723 8.008773,-4.10723 C 45.380034,269.34825 51.755416,265.475 55.142725,263 Z M 102.1163,120.83316 c 2.96104,-6.14177 5.93574,-12.10427 6.61045,-13.25 0.67471,-1.14574 2.38441,-4.50869 3.79933,-7.47323 5.19056,-10.875223 24.69737,-33.825212 34.24575,-40.290528 1.99593,-1.351468 2.08716,-1.691542 0.7512,-2.800289 -1.26884,-1.053043 -2.26503,-0.652027 -6.01631,2.421868 -2.47263,2.026131 -4.94817,3.404224 -5.5012,3.06243 -2.09535,-1.294995 -0.86351,-4.224868 2.96897,-7.061584 4.17064,-3.087013 4.4798,-4.121905 1.74644,-5.846063 -1.31614,-0.830198 -2.34948,-0.378885 -4.98809,2.178557 -3.76682,3.65095 -5.2223,3.998518 -6.18949,1.478052 -0.47298,-1.232563 0.35672,-2.689119 2.81519,-4.942141 3.73499,-3.422862 3.64958,-3.723844 -1.85854,-6.54911 -1.65,-0.846331 -6.54937,-3.42819 -10.88749,-5.737466 -9.5045,-5.059448 -19.869835,-6.538366 -25.642393,-3.658635 -1.802566,0.899238 -3.995756,1.647084 -4.873755,1.66188 C 85.136889,34.093623 73.759067,47.765916 68.34384,58.96441 66.871583,62.008984 64.965101,65.85 64.107214,67.5 c -2.126014,4.089024 -2.75839,22.690049 -1.035423,30.456433 0.713259,3.215057 2.562756,7.577617 4.109993,9.694567 1.547237,2.11695 3.758745,5.3115 4.914463,7.099 2.233444,3.45437 4.333424,4.17864 5.24302,1.80827 0.304285,-0.79296 1.729419,-2.21239 3.166966,-3.15431 2.431066,-1.5929 2.729264,-1.59703 4.267093,-0.0592 1.537828,1.53783 1.411341,1.8598 -1.809978,4.60718 l -3.463348,2.9538 3,2.51117 c 3.918116,3.27968 4.826166,3.20663 6.225586,-0.50086 1.577553,-4.17941 4.926085,-3.72212 4.449236,0.60761 -0.178848,1.62392 -0.836862,3.56912 -1.462253,4.32267 -0.877842,1.05774 -0.703137,1.6874 0.766307,2.76188 1.046861,0.76549 2.43221,1.39179 3.078555,1.39179 0.646344,0 3.597836,-5.02508 6.558869,-11.16684 z M 73.536194,89.039994 C 71.477655,86.765334 72.058593,81.084264 74.610711,78.532146 76.433523,76.709334 82.104362,76.504362 83.8,78.2 c 1.873854,1.873854 1.41137,7.261569 -0.87258,10.165141 -2.509404,3.190191 -6.83366,3.500931 -9.391226,0.674853 z M 97.472927,80.956195 C 96.493568,79.371559 98.949831,77 101.57043,77 c 2.15323,0 2.24751,-0.223818 1.27244,-3.02089 -1.31748,-3.779329 0.36469,-6.473579 3.12086,-4.998524 1.98567,1.062702 4.58319,9.151783 3.68793,11.484803 -0.69127,1.801397 -11.109263,2.221245 -12.178733,0.490806 z M 99.75,54.919901 c -3.371149,-1.963514 -1.297834,-10.493315 2.80061,-11.521959 1.21425,-0.304758 3.4996,-0.406469 5.07856,-0.226024 2.66838,0.304946 2.89255,0.668526 3.17879,5.155776 0.17233,2.701461 -0.21191,5.454112 -0.87244,6.25 -1.35817,1.636495 -7.60313,1.846309 -10.18552,0.342207 z m -39.007288,56.499659 2.242711,-0.45401 -1.992711,-3.71796 C 59.89672,105.2027 59,102.73545 59,101.76481 59,99.797635 56.537616,99.464901 52.720278,100.91625 48.697308,102.44578 47,104.86816 47,109.08016 v 3.93731 l 5.75,-0.57195 c 3.1625,-0.31458 6.75922,-0.77626 7.992712,-1.02596 z M 120,28.222506 c 0,-3.312995 -3.03643,-6.155845 -8.21884,-7.694853 C 103.92524,18.194696 101.67672,18.523281 97.6,22.6 c -1.98,1.98 -3.599709,3.6675 -3.599354,3.75 3.56e-4,0.0825 3.937856,0.180473 8.750004,0.217717 5.76951,0.04465 9.94137,0.612884 12.24935,1.668426 4.58102,2.095109 5,2.093966 5,-0.01364 z m 90.40896,53.588399 C 209.471,79.989907 207.64527,77.107524 206.35179,75.405609 202.79193,70.72168 203.67016,66 208.10122,66 c 1.55164,0 2.82005,1.598428 8.20243,10.336606 2.59804,4.21787 1.91598,8.080308 -1.49647,8.474299 -2.18439,0.252202 -3.01483,-0.314236 -4.39822,-3 z M 239.56262,71.56038 C 238.70318,70.152171 237.325,67.890832 236.5,66.535183 234.6992,63.576092 234.53347,57.86653 236.2,56.2 c 1.76779,-1.767792 4.78643,-1.459104 5.3784,0.55 0.2836,0.9625 1.65555,4.076037 3.04878,6.918971 3.15817,6.444315 2.89563,9.712899 -0.81456,10.141409 -2.00217,0.231241 -3.08582,-0.342457 -4.25,-2.25 z"
         id="path10" />
      <path
         style="fill:#25b14d"
         d="m 110.66667,271.33333 c -0.90898,-0.90897 -0.84567,-5.08711 0.0833,-5.5 3.07261,-1.3656 9.90452,-15.17045 12.32936,-24.91323 2.25918,-9.07718 2.22774,-9.19479 -4.79622,-17.94115 -2.43858,-3.03658 -5.79837,-8.61836 -7.46619,-12.40396 -2.87014,-6.51464 -3.00832,-7.42309 -2.5825,-16.97895 0.40788,-9.15335 2.15157,-17.08928 4.79706,-21.83247 0.53267,-0.95504 0.96849,-2.20179 0.96849,-2.77056 0,-1.6151 8.06865,-17.93751 11.61329,-23.49301 3.52101,-5.51848 7.00546,-9.5 8.31397,-9.5 0.71489,0 4.42111,5.22529 10.28463,14.5 0.69543,1.1 2.73225,4.32626 4.52626,7.16947 1.79402,2.8432 3.26185,5.64202 3.26185,6.21958 0,0.57757 0.84631,2.5569 1.88069,4.39853 6.1638,10.97413 1.45893,33.88564 -10.6874,52.04491 -2.51355,3.75788 -6.02498,8.03288 -7.80318,9.5 -2.60341,2.14799 -3.54756,4.03082 -4.84782,9.66751 -1.72505,7.47824 -7.22278,19.71296 -10.89356,24.24268 -1.22896,1.51653 -3.01305,3.99482 -3.96465,5.50732 -1.67062,2.65532 -3.63131,3.46944 -5.01741,2.08333 z m 18.93748,-57.85619 0.6255,-6.02286 -8.61483,-7.82113 L 113,191.81202 v 4.95567 c 0,6.30802 4.61143,16.7491 10.32914,23.38695 l 4.16377,4.83384 0.74287,-2.74424 c 0.40858,-1.50933 1.02434,-5.45453 1.36837,-8.7671 z M 144.52048,207 c 1.45121,-3.575 3.05278,-7.28139 3.55904,-8.23643 1.13855,-2.14781 1.19762,-4.76357 0.10757,-4.76357 -0.4471,0 -2.10629,1.35 -3.68709,3 -1.5808,1.65 -3.38655,3 -4.01278,3 -0.62622,0 -2.0588,1.0125 -3.18349,2.25 -1.62036,1.78288 -2.16529,4.1185 -2.62476,11.25 l -0.57986,9 3.89141,-4.5 c 2.14027,-2.475 5.07875,-7.425 6.52996,-11 z m -18.06097,-35.50454 c -3.91863,-5.49147 -4.93665,-6.39425 -5.69081,-5.04663 -1.46806,2.62327 -5.7687,15.73795 -5.7687,17.59146 0,2.4578 3.4888,6.50972 9.358,10.86845 l 5.142,3.81867 0.86592,-10.27206 0.86593,-10.27206 z M 141.55447,192.5 c 3.18731,-2.475 6.61646,-4.5 7.62032,-4.5 1.28677,0 1.87109,-0.81126 1.98073,-2.75 0.34048,-6.02024 -0.83579,-14.25 -2.03672,-14.25 -1.72624,0 -10.18318,7.42269 -11.52776,10.11796 C 136.19515,183.91609 134.27742,197 135.26318,197 c 0.2729,0 3.10398,-2.025 6.29129,-4.5 z m -0.0334,-23.38437 c 1.80681,-1.5864 3.85626,-3.07474 4.55432,-3.30743 1.27324,-0.42441 -0.36563,-3.2757 -5.8254,-10.13493 l -2.25,-2.82672 -0.0137,7.32672 c -0.008,4.0297 -0.285,8.33923 -0.61664,9.57673 -0.80113,2.98944 0.19797,2.83677 4.15137,-0.63437 z M 132.98469,157.25 c 0.008,-5.6375 -0.38778,-10.25 -0.88044,-10.25 -1.11728,0 -7.28223,9.4982 -7.46777,11.5054 -0.205,2.21782 6.72007,11.42432 7.59821,10.1014 0.40408,-0.60874 0.74158,-5.7193 0.75,-11.3568 z"
         id="path9" />
    </g>
    <path
       style="fill:none;stroke-width:0.753564"
       d="m 88.33676,196.97562 c -0.252029,-0.25203 1.921864,-7.28844 4.830874,-15.63646 2.909009,-8.34803 6.955896,-20.77344 8.993076,-27.61204 4.87252,-16.35652 7.0587,-21.7867 15.4725,-38.43178 4.89306,-9.67996 8.89199,-16.395647 13.08358,-21.972172 6.51747,-8.670899 20.73969,-23.373226 26.33313,-27.222075 5.0372,-3.4661 14.57682,-7.352198 28.70368,-11.692844 l 12.43382,-3.820436 38.05499,-0.106769 c 20.93025,-0.05872 40.16831,-0.081 42.75124,-0.0495 l 4.69625,0.05727 -2.63335,7.274745 c -5.67904,15.688583 -20.54743,50.179431 -21.4034,49.650401 -0.29994,-0.18537 -2.72289,0.52662 -5.38436,1.58219 -4.15103,1.64637 -6.23175,3.2833 -14.63534,11.51383 -5.38798,5.27703 -13.69851,12.81866 -18.46784,16.75918 l -8.6715,7.1646 -17.32647,-1.04688 c -9.52955,-0.57578 -20.88705,-0.86333 -25.23889,-0.63902 -6.74945,0.3479 -19.56599,2.37691 -24.09598,3.81467 -0.9984,0.31689 -1.94327,-0.51381 -3.70217,-3.25482 -3.37919,-5.26601 -4.87129,-6.47286 -6.75581,-5.4643 -1.91661,1.02574 -9.56802,12.48623 -12.49397,18.71378 -1.21597,2.58807 -2.53464,4.70557 -2.93037,4.70557 -0.39573,0 -3.10144,1.94874 -6.01268,4.3305 -14.561859,11.91352 -21.250016,19.81022 -23.586992,27.84913 -1.212658,4.17139 -1.271908,4.27534 -2.014018,3.53323 z m 120.03383,-63.31855 c 9.54267,-6.31955 12.62939,-11.51217 8.23984,-13.86139 -1.81808,-0.973 -4.27983,0.0132 -9.20722,3.68835 -2.16747,1.61665 -5.12771,3.5348 -6.57832,4.26256 -1.45061,0.72776 -2.88661,1.69977 -3.19111,2.16001 -0.9347,1.41278 -0.6395,3.66301 0.67043,5.11047 1.96373,2.16989 5.44673,1.69933 10.06638,-1.36 z m -1.06425,-15.78563 c 4.10761,-2.16446 8.35422,-5.92155 9.00278,-7.965 0.70992,-2.23675 -0.97589,-4.40744 -3.42291,-4.40744 -2.01461,0 -13.66853,5.42979 -16.24718,7.56989 -1.66285,1.38004 -1.30417,3.45501 0.89645,5.18601 2.63682,2.07413 5.30575,1.96938 9.77086,-0.38346 z m 13.10261,-32.331511 c 1.63323,-1.967925 -0.58481,-10.395551 -3.43941,-13.068307 -0.79758,-0.746771 -2.29791,-2.434731 -3.33406,-3.751025 -2.21691,-2.816304 -3.45593,-2.997146 -5.37494,-0.784506 -2.54322,2.93235 -1.33092,7.25506 4.14156,14.767593 2.28364,3.13495 3.31735,3.956212 4.97962,3.956212 1.15376,0 2.51601,-0.503985 3.02723,-1.119967 z m 29.25142,-13.330883 c 0.28184,-3.386315 -4.50169,-14.937581 -6.77331,-16.356233 -1.97869,-1.235712 -4.05584,0.524879 -5.22562,4.429214 -0.72785,2.429359 -0.58754,3.275425 1.15354,6.95576 3.1878,6.738452 4.66968,8.238247 7.87537,7.97059 2.56262,-0.213964 2.75432,-0.407551 2.97002,-2.999331 z"
       id="path16" />
    <path
       style="fill:none;stroke-width:0.753564"
       d="m 88.33676,196.97562 c -0.252029,-0.25203 1.921864,-7.28844 4.830874,-15.63646 2.909009,-8.34803 6.955896,-20.77344 8.993076,-27.61204 4.87252,-16.35652 7.0587,-21.7867 15.4725,-38.43178 4.89306,-9.67996 8.89199,-16.395647 13.08358,-21.972172 6.51747,-8.670899 20.73969,-23.373226 26.33313,-27.222075 5.0372,-3.4661 14.57682,-7.352198 28.70368,-11.692844 l 12.43382,-3.820436 38.05499,-0.106769 c 20.93025,-0.05872 40.16831,-0.081 42.75124,-0.0495 l 4.69625,0.05727 -2.63335,7.274745 c -5.67904,15.688583 -20.54743,50.179431 -21.4034,49.650401 -0.29994,-0.18537 -2.72289,0.52662 -5.38436,1.58219 -4.15103,1.64637 -6.23175,3.2833 -14.63534,11.51383 -5.38798,5.27703 -13.69851,12.81866 -18.46784,16.75918 l -8.6715,7.1646 -17.32647,-1.04688 c -9.52955,-0.57578 -20.88705,-0.86333 -25.23889,-0.63902 -6.74945,0.3479 -19.56599,2.37691 -24.09598,3.81467 -0.9984,0.31689 -1.94327,-0.51381 -3.70217,-3.25482 -3.37919,-5.26601 -4.87129,-6.47286 -6.75581,-5.4643 -1.91661,1.02574 -9.56802,12.48623 -12.49397,18.71378 -1.21597,2.58807 -2.53464,4.70557 -2.93037,4.70557 -0.39573,0 -3.10144,1.94874 -6.01268,4.3305 -14.561859,11.91352 -21.250016,19.81022 -23.586992,27.84913 -1.212658,4.17139 -1.271908,4.27534 -2.014018,3.53323 z m 120.03383,-63.31855 c 9.54267,-6.31955 12.62939,-11.51217 8.23984,-13.86139 -1.81808,-0.973 -4.27983,0.0132 -9.20722,3.68835 -2.16747,1.61665 -5.12771,3.5348 -6.57832,4.26256 -1.45061,0.72776 -2.88661,1.69977 -3.19111,2.16001 -0.9347,1.41278 -0.6395,3.66301 0.67043,5.11047 1.96373,2.16989 5.44673,1.69933 10.06638,-1.36 z m -1.06425,-15.78563 c 4.10761,-2.16446 8.35422,-5.92155 9.00278,-7.965 0.70992,-2.23675 -0.97589,-4.40744 -3.42291,-4.40744 -2.01461,0 -13.66853,5.42979 -16.24718,7.56989 -1.66285,1.38004 -1.30417,3.45501 0.89645,5.18601 2.63682,2.07413 5.30575,1.96938 9.77086,-0.38346 z m 13.10261,-32.331511 c 1.63323,-1.967925 -0.58481,-10.395551 -3.43941,-13.068307 -0.79758,-0.746771 -2.29791,-2.434731 -3.33406,-3.751025 -2.21691,-2.816304 -3.45593,-2.997146 -5.37494,-0.784506 -2.54322,2.93235 -1.33092,7.25506 4.14156,14.767593 2.28364,3.13495 3.31735,3.956212 4.97962,3.956212 1.15376,0 2.51601,-0.503985 3.02723,-1.119967 z m 29.25142,-13.330883 c 0.28184,-3.386315 -4.50169,-14.937581 -6.77331,-16.356233 -1.97869,-1.235712 -4.05584,0.524879 -5.22562,4.429214 -0.72785,2.429359 -0.58754,3.275425 1.15354,6.95576 3.1878,6.738452 4.66968,8.238247 7.87537,7.97059 2.56262,-0.213964 2.75432,-0.407551 2.97002,-2.999331 z"
       id="path17" />
    <path
       style="fill:none;stroke-width:0.753564"
       d="m 88.33676,196.97562 c -0.252029,-0.25203 1.921864,-7.28844 4.830874,-15.63646 2.909009,-8.34803 6.955896,-20.77344 8.993076,-27.61204 4.87252,-16.35652 7.0587,-21.7867 15.4725,-38.43178 4.89306,-9.67996 8.89199,-16.395647 13.08358,-21.972172 6.51747,-8.670899 20.73969,-23.373226 26.33313,-27.222075 5.0372,-3.4661 14.57682,-7.352198 28.70368,-11.692844 l 12.43382,-3.820436 38.05499,-0.106769 c 20.93025,-0.05872 40.16831,-0.081 42.75124,-0.0495 l 4.69625,0.05727 -2.63335,7.274745 c -5.67904,15.688583 -20.54743,50.179431 -21.4034,49.650401 -0.29994,-0.18537 -2.72289,0.52662 -5.38436,1.58219 -4.15103,1.64637 -6.23175,3.2833 -14.63534,11.51383 -5.38798,5.27703 -13.69851,12.81866 -18.46784,16.75918 l -8.6715,7.1646 -17.32647,-1.04688 c -9.52955,-0.57578 -20.88705,-0.86333 -25.23889,-0.63902 -6.74945,0.3479 -19.56599,2.37691 -24.09598,3.81467 -0.9984,0.31689 -1.94327,-0.51381 -3.70217,-3.25482 -3.37919,-5.26601 -4.87129,-6.47286 -6.75581,-5.4643 -1.91661,1.02574 -9.56802,12.48623 -12.49397,18.71378 -1.21597,2.58807 -2.53464,4.70557 -2.93037,4.70557 -0.39573,0 -3.10144,1.94874 -6.01268,4.3305 -14.561859,11.91352 -21.250016,19.81022 -23.586992,27.84913 -1.212658,4.17139 -1.271908,4.27534 -2.014018,3.53323 z m 120.03383,-63.31855 c 9.54267,-6.31955 12.62939,-11.51217 8.23984,-13.86139 -1.81808,-0.973 -4.27983,0.0132 -9.20722,3.68835 -2.16747,1.61665 -5.12771,3.5348 -6.57832,4.26256 -1.45061,0.72776 -2.88661,1.69977 -3.19111,2.16001 -0.9347,1.41278 -0.6395,3.66301 0.67043,5.11047 1.96373,2.16989 5.44673,1.69933 10.06638,-1.36 z m -1.06425,-15.78563 c 4.10761,-2.16446 8.35422,-5.92155 9.00278,-7.965 0.70992,-2.23675 -0.97589,-4.40744 -3.42291,-4.40744 -2.01461,0 -13.66853,5.42979 -16.24718,7.56989 -1.66285,1.38004 -1.30417,3.45501 0.89645,5.18601 2.63682,2.07413 5.30575,1.96938 9.77086,-0.38346 z m 13.10261,-32.331511 c 1.63323,-1.967925 -0.58481,-10.395551 -3.43941,-13.068307 -0.79758,-0.746771 -2.29791,-2.434731 -3.33406,-3.751025 -2.21691,-2.816304 -3.45593,-2.997146 -5.37494,-0.784506 -2.54322,2.93235 -1.33092,7.25506 4.14156,14.767593 2.28364,3.13495 3.31735,3.956212 4.97962,3.956212 1.15376,0 2.51601,-0.503985 3.02723,-1.119967 z m 29.25142,-13.330883 c 0.28184,-3.386315 -4.50169,-14.937581 -6.77331,-16.356233 -1.97869,-1.235712 -4.05584,0.524879 -5.22562,4.429214 -0.72785,2.429359 -0.58754,3.275425 1.15354,6.95576 3.1878,6.738452 4.66968,8.238247 7.87537,7.97059 2.56262,-0.213964 2.75432,-0.407551 2.97002,-2.999331 z"
       id="path18" />
    <path
       style="fill:none;stroke-width:0.753564"
       d="m 88.33676,196.97562 c -0.252029,-0.25203 1.921864,-7.28844 4.830874,-15.63646 2.909009,-8.34803 6.955896,-20.77344 8.993076,-27.61204 4.87252,-16.35652 7.0587,-21.7867 15.4725,-38.43178 4.89306,-9.67996 8.89199,-16.395647 13.08358,-21.972172 6.51747,-8.670899 20.73969,-23.373226 26.33313,-27.222075 5.0372,-3.4661 14.57682,-7.352198 28.70368,-11.692844 l 12.43382,-3.820436 38.05499,-0.106769 c 20.93025,-0.05872 40.16831,-0.081 42.75124,-0.0495 l 4.69625,0.05727 -2.63335,7.274745 c -5.67904,15.688583 -20.54743,50.179431 -21.4034,49.650401 -0.29994,-0.18537 -2.72289,0.52662 -5.38436,1.58219 -4.15103,1.64637 -6.23175,3.2833 -14.63534,11.51383 -5.38798,5.27703 -13.69851,12.81866 -18.46784,16.75918 l -8.6715,7.1646 -17.32647,-1.04688 c -9.52955,-0.57578 -20.88705,-0.86333 -25.23889,-0.63902 -6.74945,0.3479 -19.56599,2.37691 -24.09598,3.81467 -0.9984,0.31689 -1.94327,-0.51381 -3.70217,-3.25482 -3.37919,-5.26601 -4.87129,-6.47286 -6.75581,-5.4643 -1.91661,1.02574 -9.56802,12.48623 -12.49397,18.71378 -1.21597,2.58807 -2.53464,4.70557 -2.93037,4.70557 -0.39573,0 -3.10144,1.94874 -6.01268,4.3305 -14.561859,11.91352 -21.250016,19.81022 -23.586992,27.84913 -1.212658,4.17139 -1.271908,4.27534 -2.014018,3.53323 z m 120.03383,-63.31855 c 9.54267,-6.31955 12.62939,-11.51217 8.23984,-13.86139 -1.81808,-0.973 -4.27983,0.0132 -9.20722,3.68835 -2.16747,1.61665 -5.12771,3.5348 -6.57832,4.26256 -1.45061,0.72776 -2.88661,1.69977 -3.19111,2.16001 -0.9347,1.41278 -0.6395,3.66301 0.67043,5.11047 1.96373,2.16989 5.44673,1.69933 10.06638,-1.36 z m -1.06425,-15.78563 c 4.10761,-2.16446 8.35422,-5.92155 9.00278,-7.965 0.70992,-2.23675 -0.97589,-4.40744 -3.42291,-4.40744 -2.01461,0 -13.66853,5.42979 -16.24718,7.56989 -1.66285,1.38004 -1.30417,3.45501 0.89645,5.18601 2.63682,2.07413 5.30575,1.96938 9.77086,-0.38346 z m 13.10261,-32.331511 c 1.63323,-1.967925 -0.58481,-10.395551 -3.43941,-13.068307 -0.79758,-0.746771 -2.29791,-2.434731 -3.33406,-3.751025 -2.21691,-2.816304 -3.45593,-2.997146 -5.37494,-0.784506 -2.54322,2.93235 -1.33092,7.25506 4.14156,14.767593 2.28364,3.13495 3.31735,3.956212 4.97962,3.956212 1.15376,0 2.51601,-0.503985 3.02723,-1.119967 z m 29.25142,-13.330883 c 0.28184,-3.386315 -4.50169,-14.937581 -6.77331,-16.356233 -1.97869,-1.235712 -4.05584,0.524879 -5.22562,4.429214 -0.72785,2.429359 -0.58754,3.275425 1.15354,6.95576 3.1878,6.738452 4.66968,8.238247 7.87537,7.97059 2.56262,-0.213964 2.75432,-0.407551 2.97002,-2.999331 z"
       id="path19" />
    <path
       style="fill:none;stroke-width:0.753564"
       d="m 88.33676,196.97562 c -0.252029,-0.25203 1.921864,-7.28844 4.830874,-15.63646 2.909009,-8.34803 6.955896,-20.77344 8.993076,-27.61204 4.87252,-16.35652 7.0587,-21.7867 15.4725,-38.43178 4.89306,-9.67996 8.89199,-16.395647 13.08358,-21.972172 6.51747,-8.670899 20.73969,-23.373226 26.33313,-27.222075 5.0372,-3.4661 14.57682,-7.352198 28.70368,-11.692844 l 12.43382,-3.820436 38.05499,-0.106769 c 20.93025,-0.05872 40.16831,-0.081 42.75124,-0.0495 l 4.69625,0.05727 -2.63335,7.274745 c -5.67904,15.688583 -20.54743,50.179431 -21.4034,49.650401 -0.29994,-0.18537 -2.72289,0.52662 -5.38436,1.58219 -4.15103,1.64637 -6.23175,3.2833 -14.63534,11.51383 -5.38798,5.27703 -13.69851,12.81866 -18.46784,16.75918 l -8.6715,7.1646 -17.32647,-1.04688 c -9.52955,-0.57578 -20.88705,-0.86333 -25.23889,-0.63902 -6.74945,0.3479 -19.56599,2.37691 -24.09598,3.81467 -0.9984,0.31689 -1.94327,-0.51381 -3.70217,-3.25482 -3.37919,-5.26601 -4.87129,-6.47286 -6.75581,-5.4643 -1.91661,1.02574 -9.56802,12.48623 -12.49397,18.71378 -1.21597,2.58807 -2.53464,4.70557 -2.93037,4.70557 -0.39573,0 -3.10144,1.94874 -6.01268,4.3305 -14.561859,11.91352 -21.250016,19.81022 -23.586992,27.84913 -1.212658,4.17139 -1.271908,4.27534 -2.014018,3.53323 z m 120.03383,-63.31855 c 9.54267,-6.31955 12.62939,-11.51217 8.23984,-13.86139 -1.81808,-0.973 -4.27983,0.0132 -9.20722,3.68835 -2.16747,1.61665 -5.12771,3.5348 -6.57832,4.26256 -1.45061,0.72776 -2.88661,1.69977 -3.19111,2.16001 -0.9347,1.41278 -0.6395,3.66301 0.67043,5.11047 1.96373,2.16989 5.44673,1.69933 10.06638,-1.36 z m -1.06425,-15.78563 c 4.10761,-2.16446 8.35422,-5.92155 9.00278,-7.965 0.70992,-2.23675 -0.97589,-4.40744 -3.42291,-4.40744 -2.01461,0 -13.66853,5.42979 -16.24718,7.56989 -1.66285,1.38004 -1.30417,3.45501 0.89645,5.18601 2.63682,2.07413 5.30575,1.96938 9.77086,-0.38346 z m 13.10261,-32.331511 c 1.63323,-1.967925 -0.58481,-10.395551 -3.43941,-13.068307 -0.79758,-0.746771 -2.29791,-2.434731 -3.33406,-3.751025 -2.21691,-2.816304 -3.45593,-2.997146 -5.37494,-0.784506 -2.54322,2.93235 -1.33092,7.25506 4.14156,14.767593 2.28364,3.13495 3.31735,3.956212 4.97962,3.956212 1.15376,0 2.51601,-0.503985 3.02723,-1.119967 z m 29.25142,-13.330883 c 0.28184,-3.386315 -4.50169,-14.937581 -6.77331,-16.356233 -1.97869,-1.235712 -4.05584,0.524879 -5.22562,4.429214 -0.72785,2.429359 -0.58754,3.275425 1.15354,6.95576 3.1878,6.738452 4.66968,8.238247 7.87537,7.97059 2.56262,-0.213964 2.75432,-0.407551 2.97002,-2.999331 z"
       id="path20" />
    <path
       style="fill:#ffffff;stroke-width:0.753564"
       d="m 88.33676,196.97562 c -0.252029,-0.25203 1.921864,-7.28844 4.830874,-15.63646 2.909009,-8.34803 6.955896,-20.77344 8.993076,-27.61204 4.87252,-16.35652 7.0587,-21.7867 15.4725,-38.43178 4.89306,-9.67996 8.89199,-16.395647 13.08358,-21.972172 6.51747,-8.670899 20.73969,-23.373226 26.33313,-27.222075 5.0372,-3.4661 14.57682,-7.352198 28.70368,-11.692844 l 12.43382,-3.820436 38.05499,-0.106769 c 20.93025,-0.05872 40.16831,-0.081 42.75124,-0.0495 l 4.69625,0.05727 -2.63335,7.274745 c -5.67904,15.688583 -20.54743,50.179431 -21.4034,49.650401 -0.29994,-0.18537 -2.72289,0.52662 -5.38436,1.58219 -4.15103,1.64637 -6.23175,3.2833 -14.63534,11.51383 -5.38798,5.27703 -13.69851,12.81866 -18.46784,16.75918 l -8.6715,7.1646 -17.32647,-1.04688 c -9.52955,-0.57578 -20.88705,-0.86333 -25.23889,-0.63902 -6.74945,0.3479 -19.56599,2.37691 -24.09598,3.81467 -0.9984,0.31689 -1.94327,-0.51381 -3.70217,-3.25482 -3.37919,-5.26601 -4.87129,-6.47286 -6.75581,-5.4643 -1.91661,1.02574 -9.56802,12.48623 -12.49397,18.71378 -1.21597,2.58807 -2.53464,4.70557 -2.93037,4.70557 -0.39573,0 -3.10144,1.94874 -6.01268,4.3305 -14.561859,11.91352 -21.250016,19.81022 -23.586992,27.84913 -1.212658,4.17139 -1.271908,4.27534 -2.014018,3.53323 z m 120.03383,-63.31855 c 9.54267,-6.31955 12.62939,-11.51217 8.23984,-13.86139 -1.81808,-0.973 -4.27983,0.0132 -9.20722,3.68835 -2.16747,1.61665 -5.12771,3.5348 -6.57832,4.26256 -1.45061,0.72776 -2.88661,1.69977 -3.19111,2.16001 -0.9347,1.41278 -0.6395,3.66301 0.67043,5.11047 1.96373,2.16989 5.44673,1.69933 10.06638,-1.36 z m -1.06425,-15.78563 c 4.10761,-2.16446 8.35422,-5.92155 9.00278,-7.965 0.70992,-2.23675 -0.97589,-4.40744 -3.42291,-4.40744 -2.01461,0 -13.66853,5.42979 -16.24718,7.56989 -1.66285,1.38004 -1.30417,3.45501 0.89645,5.18601 2.63682,2.07413 5.30575,1.96938 9.77086,-0.38346 z m 13.10261,-32.331511 c 1.63323,-1.967925 -0.58481,-10.395551 -3.43941,-13.068307 -0.79758,-0.746771 -2.29791,-2.434731 -3.33406,-3.751025 -2.21691,-2.816304 -3.45593,-2.997146 -5.37494,-0.784506 -2.54322,2.93235 -1.33092,7.25506 4.14156,14.767593 2.28364,3.13495 3.31735,3.956212 4.97962,3.956212 1.15376,0 2.51601,-0.503985 3.02723,-1.119967 z m 29.25142,-13.330883 c 0.28184,-3.386315 -4.50169,-14.937581 -6.77331,-16.356233 -1.97869,-1.235712 -4.05584,0.524879 -5.22562,4.429214 -0.72785,2.429359 -0.58754,3.275425 1.15354,6.95576 3.1878,6.738452 4.66968,8.238247 7.87537,7.97059 2.56262,-0.213964 2.75432,-0.407551 2.97002,-2.999331 z"
       id="path21" />
    <path
       style="fill:#ffffff;stroke-width:0.753564"
       d="m 88.420294,197.05915 c -0.259805,-0.25981 2.878107,-10.53968 6.973137,-22.84415 4.095031,-12.30449 8.712929,-26.44104 10.261999,-31.41456 4.15897,-13.353 17.14571,-39.02665 25.01193,-49.446405 6.67456,-8.84125 20.669,-23.321465 26.2516,-27.162841 5.21454,-3.588111 14.68863,-7.467076 28.83464,-11.805734 l 12.43382,-3.813515 38.05499,-0.09884 c 20.93025,-0.05436 40.16831,-0.07306 42.75124,-0.04157 l 4.69625,0.05727 -2.52566,6.97047 c -6.09672,16.826118 -20.63178,50.498135 -21.55264,49.929015 -0.32506,-0.2009 -2.91851,0.6888 -5.7632,1.97712 -4.25643,1.92767 -6.90665,4.03291 -14.96851,11.89048 -5.38799,5.25145 -13.53686,12.63777 -18.1086,16.41406 l -8.31228,6.86598 -19.19282,-1.15654 c -20.77502,-1.25186 -29.02114,-0.85746 -42.17654,2.01728 -3.52292,0.76983 -6.45804,1.34837 -6.5225,1.28564 -0.0645,-0.0627 -1.67451,-2.23345 -3.57788,-4.82383 -1.90336,-2.59037 -3.75423,-4.70977 -4.11303,-4.70977 -2.07676,0 -9.20778,9.83644 -13.65757,18.8391 -1.68092,3.40079 -3.26207,5.42802 -5.17218,6.63139 -4.96256,3.12642 -18.503015,15.55904 -22.062928,20.25783 -1.917811,2.53135 -4.070488,6.24875 -4.783726,8.2609 -2.201042,6.20945 -2.293772,6.40699 -2.779542,5.92122 z M 207.4252,134.10835 c 6.1534,-3.52891 10.73167,-8.27357 10.73167,-11.12168 0,-2.65286 -2.02123,-4.25591 -4.27841,-3.39322 -1.1567,0.44209 -8.73966,5.29459 -15.12587,9.67939 -2.00157,1.37429 -2.19226,3.81726 -0.44838,5.74423 1.78638,1.97394 4.57976,1.69563 9.12099,-0.90872 z m 0.0143,-16.58761 c 4.5832,-2.29025 9.21021,-6.61226 9.21021,-8.60309 0,-1.51049 -2.12584,-3.41865 -3.80866,-3.41865 -2.31334,0 -15.71208,6.74676 -16.56546,8.34132 -1.39329,2.60337 1.47861,5.7735 5.37087,5.92864 0.6591,0.0263 3.26597,-0.98543 5.79304,-2.24822 z m 12.27401,-31.640921 c 0.82661,-0.442392 1.45759,-1.572045 1.45759,-2.609578 0,-3.260611 -3.02197,-9.607582 -6.0693,-12.747207 -1.63542,-1.684942 -2.97347,-3.321345 -2.97347,-3.636452 0,-1.102509 -1.80189,-0.558726 -3.53087,1.065563 -0.95925,0.901168 -1.74409,2.440644 -1.74409,3.42106 0,2.180291 2.22904,6.654584 5.77219,11.58639 2.7162,3.780751 4.27785,4.424147 7.08795,2.920224 z m 29.959,-13.438004 c 0.29138,-3.046157 -3.89401,-13.691175 -6.25524,-15.90944 -1.45736,-1.369114 -1.73915,-1.399914 -3.23326,-0.353394 -0.90023,0.63054 -2.02252,2.433972 -2.49401,4.007628 -0.76286,2.546213 -0.63902,3.322456 1.12495,7.051178 3.1878,6.738452 4.66968,8.238247 7.87537,7.97059 2.50543,-0.209189 2.76018,-0.445514 2.98219,-2.766562 z"
       id="path22" />
    <path
       style="fill:#ffffff;stroke-width:0.753564"
       d="m 36.051985,275.4664 c 0.23041,-0.60044 -0.09093,-2.11373 -0.714084,-3.36288 -0.623155,-1.24914 -2.441816,-8.47249 -4.041467,-16.05188 -5.198747,-24.63246 -8.897222,-40.05241 -10.851297,-45.24202 l -1.915271,-5.08656 h 4.864398 c 2.929576,0 4.864398,-0.31828 4.864398,-0.80021 0,-0.47307 1.771391,-0.79568 4.332995,-0.78914 2.383147,0.006 7.045826,-0.1572 10.361509,-0.36285 3.315683,-0.20566 10.267314,0.003 15.448069,0.46304 5.180754,0.46033 12.583911,1.00762 16.451459,1.21621 l 7.031906,0.37925 -0.249827,13.26062 c -0.183805,9.75621 -0.498759,13.34339 -1.191782,13.5738 -0.518076,0.17226 -0.941956,1.14396 -0.941956,2.15935 0,4.29299 -9.032161,17.66392 -17.02862,25.20864 -4.875784,4.60034 -9.364344,7.63625 -19.218904,12.99903 -7.017829,3.81904 -7.838972,4.09676 -7.201526,2.4356 z"
       id="path23" />
  </g>
</svg>
